<svg width="63" height="52" fill="none" xmlns="http://www.w3.org/2000/svg"><path d="M26.64 10.54c1.644-3.233 6.262-3.233 7.906 0l2.046 4.023a4.434 4.434 0 0 0 3.254 2.37l4.471.713c3.57.57 4.995 4.944 2.444 7.507l-3.219 3.235a4.434 4.434 0 0 0-1.237 3.816l.707 4.5c.563 3.578-3.17 6.285-6.397 4.638l-4.005-2.045a4.435 4.435 0 0 0-4.033 0l-4.006 2.045c-3.226 1.647-6.96-1.06-6.397-4.638l.707-4.5a4.434 4.434 0 0 0-1.237-3.817l-3.22-3.234c-2.55-2.563-1.125-6.937 2.445-7.507l4.471-.714a4.434 4.434 0 0 0 3.254-2.369l2.046-4.024Z" fill="#FFE550"/></svg>