<svg width="63" height="52" viewBox="0 0 63 52" fill="none" xmlns="http://www.w3.org/2000/svg">
<path d="M26.6404 10.5393C28.2842 7.30668 32.9021 7.30668 34.5459 10.5393L36.592 14.5631C37.2352 15.8279 38.4447 16.7085 39.8458 16.9321L44.3171 17.6458C47.8878 18.2157 49.312 22.5898 46.7614 25.1528L43.5425 28.3875C42.5452 29.3896 42.0856 30.8073 42.3051 32.2039L43.0123 36.7036C43.5747 40.2822 39.8415 42.9888 36.6152 41.3416L32.6096 39.2965C31.343 38.6499 29.8433 38.6499 28.5767 39.2965L24.5711 41.3416C21.3448 42.9888 17.6116 40.2822 18.174 36.7036L18.8812 32.2039C19.1007 30.8073 18.6411 29.3896 17.6438 28.3875L14.4249 25.1528C11.8743 22.5898 13.2985 18.2157 16.8692 17.6458L21.3404 16.9321C22.7416 16.7085 23.9511 15.8279 24.5943 14.5631L26.6404 10.5393Z" fill="#FFE550"/>
</svg>
