<svg aria-hidden="true" style="position:absolute;width:0;height:0;overflow:hidden" xmlns="http://www.w3.org/2000/svg">
  <defs>
    <symbol id="icon-star" viewBox="0 0 39 32">
      <path fill="#ffe550" style="fill:var(--color1, #ffe550)" d="M16.394 6.486c1.012-1.989 3.853-1.989 4.865 0l1.259 2.476a2.731 2.731 0 0 0 2.002 1.458l2.752.439c2.197.351 3.074 3.042 1.504 4.62l-1.981 1.991a2.726 2.726 0 0 0-.761 2.349l.435 2.769c.346 2.202-1.951 3.868-3.937 2.854l-2.465-1.259a2.729 2.729 0 0 0-2.482 0l-2.465 1.259c-1.985 1.014-4.283-.652-3.937-2.854l.435-2.769a2.732 2.732 0 0 0-.761-2.349l-1.981-1.991c-1.57-1.577-.693-4.269 1.504-4.62l2.752-.439a2.73 2.73 0 0 0 2.002-1.458l1.259-2.476z"/>
    </symbol>
    <!-- Menu icon -->
    <symbol id="menu" viewBox="0 0 32 32">
      <path  d="M2.666 8A1.335 1.335 0 0 1 4 6.666h24A1.33 1.33 0 0 1 29.333 8 1.333 1.333 0 0 1 28 9.334H4A1.335 1.335 0 0 1 2.666 8zm0 8.043A1.33 1.33 0 0 1 4 14.71h24a1.333 1.333 0 1 1 0 2.666H4a1.333 1.333 0 0 1-1.334-1.333zM4 22.752a1.337 1.337 0 0 0-1.334 1.333A1.33 1.33 0 0 0 4 25.418h24a1.333 1.333 0 1 0 0-2.666H4z"/>
    </symbol>
    <!-- Hero icon -->
    <symbol id="slider_left" viewBox="0 0 37 32">
      <path fill="#fefefe" style="fill:var(--color3, #fefefe)" d="M2.667 21.333v-16A5.333 5.333 0 0 1 8 0h21.333a5.333 5.333 0 0 1 5.333 5.333v16a5.333 5.333 0 0 1-5.333 5.333H8a5.333 5.333 0 0 1-5.333-5.333z"/>
      <path d="m11.634 13.937 9.288 8.85a.832.832 0 0 0 1.15 0l.01-.01a.78.78 0 0 0 .238-.555.763.763 0 0 0-.238-.555l-8.747-8.333 8.747-8.33a.78.78 0 0 0 .238-.555.763.763 0 0 0-.238-.555l-.01-.01a.832.832 0 0 0-1.15 0l-9.288 8.85a.82.82 0 0 0-.258.603.837.837 0 0 0 .258.603z"/>
    </symbol>
    <symbol id="slider_right" viewBox="0 0 37 32">
      <path fill="#fefefe" style="fill:var(--color3, #fefefe)" d="M34.667 5.333v16a5.333 5.333 0 0 1-5.333 5.333H8.001a5.333 5.333 0 0 1-5.333-5.333v-16A5.333 5.333 0 0 1 8.001 0h21.333a5.333 5.333 0 0 1 5.333 5.333z"/>
      <path  d="m25.7 12.73-9.288-8.85a.832.832 0 0 0-1.15 0l-.01.01a.78.78 0 0 0-.238.555.763.763 0 0 0 .238.555l8.747 8.333-8.747 8.33a.78.78 0 0 0-.238.555.763.763 0 0 0 .238.555l.01.01a.832.832 0 0 0 1.15 0l9.288-8.85a.82.82 0 0 0 .258-.603.837.837 0 0 0-.258-.603z"/>
    </symbol>
    <!-- Offerings icon -->
       <symbol id="deliv" viewBox="0 0 32 32">
      <path d="m7.233 13.633 3.533 1.5c.4-.8.828-1.589 1.283-2.367s.939-1.522 1.45-2.233L10.866 10l-3.633 3.633zm5.134 2.7 4.433 4.433c1.267-.578 2.456-1.233 3.567-1.967s2.011-1.444 2.7-2.133c1.8-1.8 3.122-3.644 3.967-5.533s1.3-4.022 1.367-6.4c-2.378.067-4.511.522-6.4 1.367s-3.733 2.167-5.533 3.967c-.689.689-1.4 1.589-2.133 2.7s-1.389 2.3-1.967 3.567zm7.633-3.2c-.444-.444-.667-.995-.667-1.65s.222-1.206.667-1.65.994-.667 1.65-.667c.656 0 1.206.222 1.65.667s.667.994.667 1.65c0 .655-.222 1.206-.667 1.65s-.994.667-1.65.667-1.206-.222-1.65-.667zM19.5 25.9l3.633-3.633-.533-2.633c-.711.511-1.456.994-2.233 1.45S18.8 21.967 18 22.367l1.5 3.533zM30.367 2.767c.2 3.022-.178 5.778-1.133 8.267s-2.533 4.833-4.733 7.033l-.133.133.733 3.667c.067.333.05.656-.05.967s-.272.589-.517.833l-5.7 5.733-2.833-6.6-5.667-5.667-6.6-2.833 5.733-5.7c.244-.244.522-.417.833-.517s.633-.117.967-.05l3.667.733c.022-.022.044-.039.067-.05s.044-.028.067-.05c2.2-2.2 4.544-3.783 7.033-4.75s5.244-1.35 8.267-1.15zm-24.4 18.4c.778-.778 1.728-1.172 2.85-1.183s2.072.372 2.85 1.15c.778.778 1.161 1.728 1.15 2.85s-.406 2.072-1.183 2.85c-.578.578-1.472 1.055-2.683 1.433s-3.028.733-5.45 1.067c.333-2.422.683-4.244 1.05-5.467s.839-2.122 1.417-2.7zm1.4 1.433c-.311.333-.589.856-.833 1.567s-.456 1.622-.633 2.733c1.111-.178 2.022-.389 2.733-.633s1.233-.522 1.567-.833c.422-.378.639-.85.65-1.417s-.183-1.061-.583-1.483c-.422-.4-.917-.595-1.483-.583s-1.039.228-1.417.65z"/>
    </symbol>
    <symbol id="order" viewBox="0 0 32 32">
      <path d="M15.5 1.333c2.022 0 3.75.706 5.183 2.117s2.15 3.128 2.15 5.15c0 1.156-.25 2.244-.75 3.267s-1.206 1.889-2.117 2.6h-1.133V12.8c.645-.511 1.139-1.133 1.483-1.867s.517-1.511.517-2.333c0-1.467-.522-2.711-1.567-3.733s-2.3-1.533-3.767-1.533-2.722.511-3.767 1.533c-1.044 1.022-1.567 2.267-1.567 3.733 0 .822.172 1.6.517 2.333s.839 1.356 1.483 1.867v2.4c-1.245-.645-2.222-1.556-2.933-2.733S8.165 10 8.165 8.6c0-2.022.717-3.739 2.15-5.15s3.161-2.117 5.183-2.117zm-1.267 28c-.378 0-.733-.072-1.067-.217s-.622-.339-.867-.583l-6.867-6.867 1.867-1.933c.311-.311.661-.55 1.05-.717s.794-.194 1.217-.083l2.6.6V8.666c0-.933.322-1.722.967-2.367s1.433-.967 2.367-.967 1.722.322 2.367.967c.644.644.967 1.433.967 2.367v5.733h.867c.111 0 .211.022.3.067s.189.089.3.133l4.933 2.4c.533.244.928.639 1.183 1.183s.328 1.106.217 1.683l-1.2 7.267c-.111.645-.422 1.172-.933 1.583s-1.089.617-1.733.617h-8.533zm-.266-2h9.367l1.433-8.3-6.1-3.033h-1.833V8.667c0-.4-.122-.722-.367-.967s-.567-.367-.967-.367-.722.122-.967.367c-.244.244-.367.567-.367.967v13.3l-5.133-1.1-.767.767 5.7 5.7zm9.366 0z"/>
    </symbol>
    <!-- Customers -->
    <symbol id="star" viewBox="0 0 32 32">
      <path d="M8.57828 0.51869C8.87462 -0.172898 9.88389 -0.172897 10.1802 0.518692L11.9292 4.60057C12.0542 4.89213 12.3366 5.09134 12.6609 5.11657L17.2005 5.46986C17.9697 5.52972 18.2816 6.46147 17.6956 6.94876L14.2368 9.82474C13.9898 10.0302 13.8818 10.3526 13.9573 10.6597L15.014 14.9599C15.1931 15.6885 14.3766 16.2644 13.7181 15.874L9.83144 13.5695C9.55382 13.4049 9.20468 13.4049 8.92708 13.5695L5.04044 15.874C4.38192 16.2644 3.56541 15.6885 3.74444 14.9599L4.80116 10.6597C4.87664 10.3526 4.76874 10.0302 4.5217 9.82474L1.06291 6.94876C0.476891 6.46147 0.788776 5.52972 1.55794 5.46986L6.09766 5.11657C6.42192 5.09134 6.70438 4.89213 6.8293 4.60057L8.57828 0.51869Z"/>
    </symbol>
     <symbol id="stars" viewBox="0 0 100 16">
    <path d="M7.82.519c.296-.692 1.305-.692 1.602 0L11.17 4.6c.125.291.407.49.731.516l4.54.353c.77.06 1.081.991.495 1.479l-3.459 2.876a.828.828 0 0 0-.28.835l1.057 4.3c.18.728-.637 1.304-1.296.914l-3.886-2.305a.89.89 0 0 0-.904 0l-3.887 2.305c-.659.39-1.475-.186-1.296-.914l1.057-4.3a.828.828 0 0 0-.28-.835L.304 6.949C-.282 6.46.03 5.529.8 5.469l4.54-.352a.866.866 0 0 0 .732-.516L7.82.519ZM28.51.519c.296-.692 1.305-.692 1.601 0l1.75 4.082c.124.291.407.49.731.516l4.54.353c.769.06 1.08.991.495 1.479l-3.459 2.876a.828.828 0 0 0-.28.835l1.057 4.3c.18.728-.637 1.304-1.296.914l-3.886-2.305a.89.89 0 0 0-.905 0l-3.886 2.305c-.659.39-1.475-.186-1.296-.914l1.056-4.3a.828.828 0 0 0-.28-.835l-3.458-2.876c-.586-.488-.274-1.42.495-1.48l4.54-.352a.866.866 0 0 0 .732-.516L28.509.519ZM49.199.519c.296-.692 1.306-.692 1.602 0L52.55 4.6c.125.291.407.49.732.516l4.54.353c.768.06 1.08.991.494 1.479l-3.459 2.876a.828.828 0 0 0-.28.835l1.058 4.3c.179.728-.638 1.304-1.296.914l-3.887-2.305a.89.89 0 0 0-.904 0l-3.887 2.305c-.659.39-1.475-.186-1.296-.914l1.057-4.3a.828.828 0 0 0-.28-.835l-3.459-2.876c-.586-.488-.274-1.42.495-1.48l4.54-.352a.866.866 0 0 0 .732-.516L49.199.519ZM69.889.519c.296-.692 1.305-.692 1.602 0L73.24 4.6c.125.291.407.49.731.516l4.54.353c.769.06 1.08.991.495 1.479l-3.459 2.876a.828.828 0 0 0-.28.835l1.057 4.3c.18.728-.637 1.304-1.296.914l-3.886-2.305a.89.89 0 0 0-.905 0l-3.886 2.305c-.659.39-1.475-.186-1.296-.914l1.056-4.3a.828.828 0 0 0-.279-.835l-3.459-2.876c-.586-.488-.274-1.42.495-1.48l4.54-.352a.866.866 0 0 0 .732-.516L69.889.519ZM90.578.519c.297-.692 1.306-.692 1.602 0L93.93 4.6c.124.291.407.49.73.516l4.54.353c.77.06 1.082.991.496 1.479l-3.46 2.876a.828.828 0 0 0-.279.835l1.057 4.3c.18.728-.637 1.304-1.296.914l-3.887-2.305a.89.89 0 0 0-.904 0l-3.887 2.305c-.658.39-1.475-.186-1.296-.914l1.057-4.3a.828.828 0 0 0-.28-.835l-3.458-2.876c-.586-.488-.274-1.42.495-1.48l4.54-.352a.866.866 0 0 0 .731-.516L90.58.519Z"/>
    </symbol>
    <!-- Modal  icon -->
    <symbol id="cross" viewBox="0 0 32 32">
      <path d="M31.708 25.708 22 16l9.708-9.708a1 1 0 0 0 0-1.414L27.122.292a1 1 0 0 0-1.414-.001L16 9.999 6.292.291a.998.998 0 0 0-1.414.001L.292 4.878a1 1 0 0 0 0 1.414L10 16 .292 25.708a.999.999 0 0 0 0 1.414l4.586 4.586a1 1 0 0 0 1.414 0L16 22l9.708 9.708a1 1 0 0 0 1.414 0l4.586-4.586a.999.999 0 0 0 0-1.414z"/>
    </symbol>
  </defs>
</svg>

 

